<?xml version="1.0" encoding="UTF-8"?>
<svg width="40px" height="34px" viewBox="0 0 40 34" version="1.1" xmlns="http://www.w3.org/2000/svg" xmlns:xlink="http://www.w3.org/1999/xlink">
    <!-- Generator: Sketch 50.2 (55047) - http://www.bohemiancoding.com/sketch -->
    <title>Fill 95</title>
    <desc>Created with Sketch.</desc>
    <defs></defs>
    <g id="Page-1" stroke="none" stroke-width="1" fill="none" fill-rule="evenodd">
        <g id="Desktop-HD-Copy" transform="translate(-179.000000, -627.000000)" fill="#5DC7C1">
            <path d="M180.811977,658.703478 L180.811977,642.398832 L188.965872,642.398832 C190.053058,647.924295 195.39839,651.456969 200.924919,650.369992 C204.911268,649.55476 208.082227,646.384412 208.897616,642.398832 L217.051512,642.398832 L217.051512,658.703478 L180.811977,658.703478 Z M186.247907,628.811627 L211.615582,628.811627 L217.051512,640.587205 L207.08564,640.587205 C207.08564,645.116273 203.461686,648.739528 198.931744,648.739528 C194.401802,648.739528 190.777849,645.116273 190.777849,640.587205 L180.811977,640.587205 L186.247907,628.811627 Z M218.863489,639.681391 L212.52157,627 L185.341919,627 L179,639.681391 L179,660.515105 L218.863489,660.515105 L218.863489,639.681391 Z" id="Fill-95"></path>
        </g>
    </g>
</svg>