<?xml version="1.0" encoding="UTF-8"?>
<svg width="46px" height="44px" viewBox="0 0 46 44" version="1.1" xmlns="http://www.w3.org/2000/svg" xmlns:xlink="http://www.w3.org/1999/xlink">
    <!-- Generator: Sketch 50.2 (55047) - http://www.bohemiancoding.com/sketch -->
    <title>Group</title>
    <desc>Created with Sketch.</desc>
    <defs></defs>
    <g id="Page-1" stroke="none" stroke-width="1" fill="none" fill-rule="evenodd">
        <g id="Desktop-HD-Copy" transform="translate(-173.000000, -227.000000)" fill="#84C543">
            <g id="Group" transform="translate(173.000000, 227.000000)">
                <path d="M2.48958333,31.8721315 L2.48958333,22.5510128 L43.5104167,22.5510128 L43.5104167,20.686789 L2.48958333,20.686789 L2.48958333,2.04455168 L43.5104167,2.04455168 L43.5104167,31.8721315 L2.48958333,31.8721315 Z M20.203125,41.1932501 L25.796875,41.1932501 L25.796875,33.7363552 L20.203125,33.7363552 L20.203125,41.1932501 Z M45.375,33.7363552 L45.375,0.180327945 L0.625,0.180327945 L0.625,33.7363552 L18.3385417,33.7363552 L18.3385417,41.1932501 L13.6770833,41.1932501 L13.6770833,43.0574739 L32.3229167,43.0574739 L32.3229167,41.1932501 L27.6614583,41.1932501 L27.6614583,33.7363552 L45.375,33.7363552 Z M23,25.3473484 C21.9744792,25.3473484 21.1354167,26.1862491 21.1354167,27.2115721 C21.1354167,28.2368952 21.9744792,29.0757959 23,29.0757959 C24.0255208,29.0757959 24.8645833,28.2368952 24.8645833,27.2115721 C24.8645833,26.1862491 24.0255208,25.3473484 23,25.3473484 L23,25.3473484 Z" id="Fill-65"></path>
            </g>
        </g>
    </g>
</svg>