<?xml version="1.0" encoding="UTF-8"?>
<svg width="47px" height="47px" viewBox="0 0 47 47" version="1.1" xmlns="http://www.w3.org/2000/svg" xmlns:xlink="http://www.w3.org/1999/xlink">
    <!-- Generator: Sketch 50.2 (55047) - http://www.bohemiancoding.com/sketch -->
    <title>Fill 3</title>
    <desc>Created with Sketch.</desc>
    <defs></defs>
    <g id="Page-1" stroke="none" stroke-width="1" fill="none" fill-rule="evenodd">
        <g id="Desktop-HD-Copy" transform="translate(-565.000000, -221.000000)" fill="#F5B03F">
            <path d="M583.604167,236.666667 L596.333333,244.5 L583.604167,252.333333 L583.604167,236.666667 Z M581.645833,256.25 L600.25,244.5 L581.645833,232.75 L581.645833,256.25 Z M588.5,266.041667 C576.554167,266.041667 566.958333,256.445833 566.958333,244.5 C566.958333,232.554167 576.554167,222.958333 588.5,222.958333 C600.445833,222.958333 610.041667,232.554167 610.041667,244.5 C610.041667,256.347917 600.347917,266.041667 588.5,266.041667 L588.5,266.041667 Z M588.5,221 C575.477083,221 565,231.477083 565,244.5 C565,257.522917 575.477083,268 588.5,268 C601.522917,268 612,257.522917 612,244.5 C612,231.477083 601.522917,221 588.5,221 L588.5,221 Z" id="Fill-3"></path>
        </g>
    </g>
</svg>