<?xml version="1.0" encoding="UTF-8"?>
<svg width="32px" height="46px" viewBox="0 0 32 46" version="1.1" xmlns="http://www.w3.org/2000/svg" xmlns:xlink="http://www.w3.org/1999/xlink">
    <!-- Generator: Sketch 50.2 (55047) - http://www.bohemiancoding.com/sketch -->
    <title>Fill 103</title>
    <desc>Created with Sketch.</desc>
    <defs></defs>
    <g id="Page-1" stroke="none" stroke-width="1" fill="none" fill-rule="evenodd">
        <g id="Desktop-HD-Copy" transform="translate(-956.000000, -221.000000)" fill="#4A90E2">
            <path d="M957.882353,257.705882 L959.647059,250.678431 L959.647059,243.65098 C959.647059,236.974902 965.294118,231.528627 972,231.352941 C972.088235,231.352941 971.911765,231.352941 972,231.352941 C978.705882,231.528627 984.352941,236.974902 984.352941,243.65098 L984.352941,250.678431 L986.117647,257.705882 L957.882353,257.705882 Z M971.529412,264.294118 C969.113725,264.294118 966.352941,262.317647 966.352941,259.588235 L976.705882,259.588235 C976.705882,262.317647 973.945098,264.294118 971.529412,264.294118 L971.529412,264.294118 Z M968.235294,226.647059 C968.235294,224.576471 969.929412,222.882353 972,222.882353 C974.070588,222.882353 975.764706,224.576471 975.764706,226.647059 C975.670588,228.717647 974.070588,230.317647 972,230.411765 C971.905882,230.411765 972.094118,230.411765 972,230.411765 C969.929412,230.317647 968.329412,228.717647 968.235294,226.647059 L968.235294,226.647059 Z M986.222222,251.117647 L986.222222,244.031142 C986.222222,237.564706 981.866667,231.895502 975.555556,230.301038 C976.711111,229.326644 977.333333,227.820761 977.333333,226.314879 C977.333333,223.391696 974.933333,221 972,221 C969.066667,221 966.666667,223.391696 966.666667,226.314879 C966.666667,227.820761 967.288889,229.238062 968.444444,230.301038 C962.133333,231.895502 957.777778,237.564706 957.777778,244.031142 L957.777778,251.117647 L956,259.975779 L964.888889,259.975779 C964.888889,263.607612 968.622222,266.176471 972,266.176471 C975.377778,266.176471 979.111111,263.607612 979.111111,259.975779 L988,259.975779 L986.222222,251.117647 Z" id="Fill-103"></path>
        </g>
    </g>
</svg>